<svg width="154" height="15" viewBox="0 0 154 15" fill="none" xmlns="http://www.w3.org/2000/svg">
<path d="M20.2812 1.8125C20.2812 2.33333 20.0729 2.77083 19.6562 3.125C19.2604 3.45833 18.7708 3.625 18.1875 3.625H4.96875C4.69792 3.625 4.47917 3.67708 4.3125 3.78125C4.14583 3.88542 4.02083 4 3.9375 4.125C3.85417 4.22917 3.8125 4.32292 3.8125 4.40625C3.8125 4.51042 3.85417 4.625 3.9375 4.75C4.02083 4.85417 4.14583 4.95833 4.3125 5.0625C4.47917 5.14583 4.69792 5.19792 4.96875 5.21875H15.1875C16.5 5.23958 17.5833 5.5 18.4375 6C19.2917 6.47917 19.8958 7.05208 20.25 7.71875C20.625 8.36458 20.8125 9.02083 20.8125 9.6875C20.8125 10.3333 20.625 10.9896 20.25 11.6562C19.875 12.3021 19.2604 12.875 18.4062 13.375C17.5729 13.8542 16.5 14.0938 15.1875 14.0938C14.9583 14.1146 14.7917 14.125 14.6875 14.125H2.5625C1.97917 14.125 1.47917 13.9583 1.0625 13.625C0.666667 13.2708 0.46875 12.8438 0.46875 12.3438C0.46875 11.8229 0.677083 11.3854 1.09375 11.0312C1.48958 10.6979 1.97917 10.5312 2.5625 10.5312H15.4375C15.75 10.5521 16 10.5104 16.1875 10.4062C16.3958 10.3021 16.5521 10.1875 16.6562 10.0625C16.7604 9.9375 16.8125 9.8125 16.8125 9.6875C16.8125 9.625 16.7604 9.52083 16.6562 9.375C16.5521 9.20833 16.3958 9.08333 16.1875 9C16 8.89583 15.75 8.83333 15.4375 8.8125H5.1875C3.97917 8.79167 2.97917 8.54167 2.1875 8.0625C1.39583 7.5625 0.833333 6.98958 0.5 6.34375C0.166667 5.69792 0 5.05208 0 4.40625C0 3.76042 0.166667 3.125 0.5 2.5C0.854167 1.85417 1.41667 1.30208 2.1875 0.84375C2.97917 0.364583 3.97917 0.104167 5.1875 0.0625C5.39583 0.0416667 5.55208 0.03125 5.65625 0.03125H18.1875C18.7708 0.03125 19.2604 0.208333 19.6562 0.5625C20.0729 0.895833 20.2812 1.3125 20.2812 1.8125ZM30.6875 14.1875C28.8542 14.125 27.4688 13.6979 26.5312 12.9062C25.5938 12.0938 24.9167 11.1875 24.5 10.1875C24.0833 9.16667 23.875 8.13542 23.875 7.09375C23.875 6.01042 24.0729 4.96875 24.4688 3.96875C24.8854 2.94792 25.5625 2.04167 26.5 1.25C27.4583 0.4375 28.6667 0.0208333 30.125 0H42C42.5833 0 43.0729 0.197917 43.4688 0.59375C43.8854 0.96875 44.0938 1.42708 44.0938 1.96875C44.0938 2.53125 43.8854 3.01042 43.4688 3.40625C43.0729 3.78125 42.5833 3.96875 42 3.96875H30.3125C29.8542 3.96875 29.4479 4.125 29.0938 4.4375C28.7604 4.75 28.5104 5.15625 28.3438 5.65625C28.1979 6.15625 28.125 6.64583 28.125 7.125C28.125 7.64583 28.1979 8.15625 28.3438 8.65625C28.5104 9.15625 28.7604 9.5625 29.0938 9.875C29.4479 10.1667 29.8542 10.3229 30.3125 10.3438H42C42.5833 10.3438 43.0729 10.5312 43.4688 10.9062C43.8854 11.2812 44.0938 11.7292 44.0938 12.25C44.0938 12.7917 43.8854 13.25 43.4688 13.625C43.0729 14 42.5833 14.1875 42 14.1875H30.6875ZM43.7188 7.03125C43.7188 7.42708 43.5417 7.77083 43.1875 8.0625C42.875 8.33333 42.4792 8.46875 42 8.46875H31.7812C31.3021 8.46875 30.8958 8.33333 30.5625 8.0625C30.2292 7.77083 30.0625 7.42708 30.0625 7.03125C30.0625 6.65625 30.2292 6.32292 30.5625 6.03125C30.8958 5.76042 31.3021 5.625 31.7812 5.625H42C42.4792 5.625 42.8854 5.77083 43.2188 6.0625C43.5521 6.33333 43.7188 6.65625 43.7188 7.03125ZM48.3438 3.9375C48.7396 2.9375 49.4062 2.04167 50.3438 1.25C51.3021 0.4375 52.5104 0.0208333 53.9688 0H65.7188C66.3021 0 66.7917 0.208333 67.1875 0.625C67.6042 1.02083 67.8125 1.51042 67.8125 2.09375C67.8125 2.67708 67.6042 3.17708 67.1875 3.59375C66.7917 3.98958 66.3021 4.1875 65.7188 4.1875H53.8438C53.4479 4.1875 53.1042 4.35417 52.8125 4.6875C52.5208 5 52.2917 5.375 52.125 5.8125C51.9792 6.25 51.9062 6.66667 51.9062 7.0625V12.5312C51.7812 13.7812 51.0938 14.4583 49.8438 14.5625C49.2604 14.5625 48.75 14.375 48.3125 14C47.8958 13.6042 47.6875 13.1146 47.6875 12.5312V7.09375H47.7188C47.7188 6.01042 47.9271 4.95833 48.3438 3.9375ZM88.375 12.5312V5C88.375 4.47917 88.1042 4.20833 87.5625 4.1875H76.625C76.2292 4.20833 75.8854 4.38542 75.5938 4.71875C75.3021 5.03125 75.0833 5.40625 74.9375 5.84375C74.8125 6.26042 74.75 6.6875 74.75 7.125C74.75 7.54167 74.8125 7.96875 74.9375 8.40625C75.0833 8.82292 75.3021 9.19792 75.5938 9.53125C75.8854 9.84375 76.2292 10 76.625 10H84.625C85.2083 10 85.6979 10.2083 86.0938 10.625C86.5104 11.0208 86.7188 11.5104 86.7188 12.0938C86.7188 12.6771 86.5104 13.1667 86.0938 13.5625C85.6979 13.9792 85.2083 14.1875 84.625 14.1875H76.75C75.2917 14.1667 74.0833 13.7604 73.125 12.9688C72.1875 12.1562 71.5104 11.25 71.0938 10.25C70.6979 9.22917 70.5 8.17708 70.5 7.09375C70.5 6.05208 70.7083 5.03125 71.125 4.03125C71.5417 3.01042 72.2188 2.10417 73.1562 1.3125C74.0938 0.5 75.4792 0.0625 77.3125 0H90.4375C91.0208 0 91.5208 0.197917 91.9375 0.59375C92.3542 0.96875 92.5729 1.44792 92.5938 2.03125V12.5312C92.5938 13.1146 92.375 13.6042 91.9375 14C91.5208 14.375 91.0208 14.5625 90.4375 14.5625C89.1875 14.4583 88.5 13.7812 88.375 12.5312Z" fill="#00C853"/>
<path d="M99.8438 14.6875C99.0104 14.6875 98.3125 14.3958 97.75 13.8125C97.2083 13.2292 96.9375 12.5 96.9375 11.625C96.9375 10.75 97.2083 10.0208 97.75 9.4375C98.3125 8.85417 99.0104 8.5625 99.8438 8.5625C100.677 8.5625 101.375 8.85417 101.938 9.4375C102.5 10.0208 102.781 10.75 102.781 11.625C102.781 12.5 102.5 13.2292 101.938 13.8125C101.375 14.3958 100.677 14.6875 99.8438 14.6875ZM113.344 14.1875C111.51 14.125 110.125 13.6979 109.188 12.9062C108.25 12.0938 107.573 11.1875 107.156 10.1875C106.74 9.16667 106.531 8.13542 106.531 7.09375C106.531 6.01042 106.729 4.96875 107.125 3.96875C107.542 2.94792 108.219 2.04167 109.156 1.25C110.115 0.4375 111.323 0.0208333 112.781 0H124.656C125.24 0 125.729 0.208333 126.125 0.625C126.542 1.02083 126.75 1.51042 126.75 2.09375C126.75 2.67708 126.542 3.17708 126.125 3.59375C125.729 3.98958 125.24 4.1875 124.656 4.1875H112.656C112.26 4.1875 111.917 4.35417 111.625 4.6875C111.333 5 111.115 5.375 110.969 5.8125C110.844 6.22917 110.781 6.64583 110.781 7.0625C110.781 7.5 110.844 7.9375 110.969 8.375C111.115 8.79167 111.333 9.16667 111.625 9.5C111.917 9.8125 112.26 9.97917 112.656 10H124.656C125.24 10 125.729 10.2083 126.125 10.625C126.542 11.0208 126.75 11.5104 126.75 12.0938C126.75 12.6771 126.542 13.1667 126.125 13.5625C125.729 13.9792 125.24 14.1875 124.656 14.1875H113.344ZM139.25 12.25C137.646 13.4583 136.094 14.1042 134.594 14.1875H131.344C130.781 14.1667 130.302 13.9688 129.906 13.5938C129.531 13.1979 129.333 12.7188 129.312 12.1562C129.312 11.5729 129.5 11.0729 129.875 10.6562C130.271 10.2396 130.76 10.0208 131.344 10H134.281C135.073 9.95833 135.896 9.65625 136.75 9.09375C137.604 8.53125 138.312 7.88542 138.875 7.15625C138.938 7.09375 139 7.02083 139.062 6.9375C138.5 6.25 137.812 5.63542 137 5.09375C136.146 4.53125 135.323 4.22917 134.531 4.1875H131.594C131.01 4.16667 130.521 3.94792 130.125 3.53125C129.75 3.11458 129.562 2.61458 129.562 2.03125C129.583 1.46875 129.781 1 130.156 0.625C130.552 0.229167 131.031 0.0208333 131.594 0H134.844C136.344 0.0833333 137.896 0.729167 139.5 1.9375C140.188 2.45833 140.833 3.05208 141.438 3.71875C142.042 3.05208 142.698 2.45833 143.406 1.9375C144.99 0.729167 146.531 0.0833333 148.031 0H151.281C151.844 0.0208333 152.312 0.229167 152.688 0.625C153.083 1 153.292 1.46875 153.312 2.03125C153.312 2.61458 153.115 3.11458 152.719 3.53125C152.344 3.94792 151.865 4.16667 151.281 4.1875H148.344C147.552 4.22917 146.729 4.53125 145.875 5.09375C145.062 5.63542 144.375 6.25 143.812 6.9375C143.875 7.02083 143.938 7.09375 144 7.15625C144.562 7.88542 145.271 8.53125 146.125 9.09375C146.979 9.65625 147.802 9.95833 148.594 10H151.531C152.115 10.0208 152.594 10.2396 152.969 10.6562C153.365 11.0729 153.562 11.5729 153.562 12.1562C153.542 12.7188 153.333 13.1979 152.938 13.5938C152.562 13.9688 152.094 14.1667 151.531 14.1875H148.281C146.781 14.1042 145.24 13.4583 143.656 12.25C142.844 11.625 142.104 10.9479 141.438 10.2188C140.771 10.9479 140.042 11.625 139.25 12.25Z" fill="#0A0A0A"/>
</svg>
